<svg xmlns="http://www.w3.org/2000/svg" width="199.404" height="199.389" viewBox="0 0 199.404 199.389">
  <g id="Group_252" data-name="Group 252" transform="translate(-13.35 -13.36)">
    <path id="Path_1170" data-name="Path 1170" d="M212.739,113.055A99.695,99.695,0,1,1,113.045,13.36h.015a99.7,99.7,0,0,1,99.695,99.695h0" transform="translate(0 0)" fill="#007b3b"/>
    <path id="Path_1171" data-name="Path 1171" d="M111.532,20.886a90.655,90.655,0,1,1-.015,0h.015m0-4.3a94.361,94.361,0,1,0,67.125,27.8A94.944,94.944,0,0,0,111.532,16.59Z" transform="translate(1.528 1.521)" fill="#fff"/>
    <path id="Path_1172" data-name="Path 1172" d="M66,94.81h0" transform="translate(24.802 38.369)" fill="#fff"/>
    <path id="Path_1173" data-name="Path 1173" d="M80.178,103.076a3.3,3.3,0,0,1-2.721-1.089c-.353-.574-.353-.986-.353-3.28V96.971c0-.221-.382-.25-.559-.25H76.5l.162-.441h2.427l-.177.441c-.235,0-.6,0-.6.382v2.942c0,.853,0,2.295,1.809,2.295,1.339,0,1.971-.662,1.971-2.089V96.971c0-.235-.485-.235-.485-.235l.162-.441h1.809l-.162.441H83.3c-.162,0-.441,0-.441.382v2.942a3.528,3.528,0,0,1-.6,2.148,2.856,2.856,0,0,1-2.045.824" transform="translate(29.748 39.061)" fill="#fff"/>
    <path id="Path_1174" data-name="Path 1174" d="M87.9,102.929c-.912-1.015-1.471-1.618-1.9-2.06l-.588-.633-.677-.75a9.435,9.435,0,0,0-1.471-1.471v4.958H81.72l.177-.427c.206,0,.544,0,.544-.338V97.045c0-.294-.324-.324-.456-.324l.118-.441h.956c1.912,2.162,1.912,2.162,1.912,2.177s2.045,2.177,2.574,2.736V96.309H89.1l-.162.441c-.132,0-.633,0-.633.279v5.914h-.6Z" transform="translate(32.207 39.061)" fill="#fff"/>
    <path id="Path_1175" data-name="Path 1175" d="M87.816,102.493h.1c.162,0,.427,0,.427-.25V97.02c0-.265-.382-.309-.6-.309H87.61l.147-.441h2.221l-.162.441c-.206,0-.427,0-.427.309v5.208c0,.1,0,.162.206.206a1.183,1.183,0,0,0,.353,0h.118l-.162.427H87.654Z" transform="translate(34.982 39.057)" fill="#fff"/>
    <path id="Path_1176" data-name="Path 1176" d="M92.859,102.953s-.691-1.589-1.471-3.325c-.471-1.044-1-2.089-1.236-2.53v-.132a.544.544,0,0,0-.515-.265H89.52l.162-.441h.647a5.774,5.774,0,0,0,.677,0l1.839,4.031a9.331,9.331,0,0,1,.53,1.471,23.639,23.639,0,0,1,.941-2.324l1.074-2.324a5.021,5.021,0,0,0,.28-.78h.662a5.666,5.666,0,0,0,.633,0l-.177.441c-.177,0-.441,0-.706.633l-.927,1.986-1.6,3.619Z" transform="translate(35.882 39.052)" fill="#fff"/>
    <path id="Path_1177" data-name="Path 1177" d="M100.235,96.889v2.192c1.133,0,1.751-.544,1.751-1.383s-.75-.839-1.309-.839a1.69,1.69,0,0,0-.456,0m5.252,6.178a3.161,3.161,0,0,1-2.78-1.118c-1.221-1.339-2.471-2.736-2.5-2.78v3.825H98.44l.162-.441a.763.763,0,0,0,.485-.118.172.172,0,0,0,0-.132V97.036c0-.28-.382-.309-.544-.309l.074-.427h2.545c.618,0,1.809.25,1.809,1.206s-.941,1.6-1.809,1.854c2.692,2.766,3.3,3.192,4.56,3.192H106a1.575,1.575,0,0,0,1.4-1.383c0-.485,0-1.133-1.471-1.221-1.147,0-1.765-.588-1.795-1.471a1.944,1.944,0,0,1,.559-1.471,2.614,2.614,0,0,1,1.912-.765,1.927,1.927,0,0,1,1.4.456l-.088,1.206h-.441s-.1-.5-.1-.515a1.846,1.846,0,0,0-1.133-.382,1.06,1.06,0,0,0-1.171.934,1.087,1.087,0,0,0-.006.154c0,.677.471,1.015,1.545,1.118s1.736.647,1.736,1.559a2.839,2.839,0,0,1-2.942,2.413" transform="translate(40.084 39.041)" fill="#fff"/>
    <path id="Path_1178" data-name="Path 1178" d="M71.3,103.747a2.37,2.37,0,0,0-2.207,1.28,3.385,3.385,0,0,0-.265,1.368,2.546,2.546,0,0,0,1.221,2.442,2.647,2.647,0,0,0,1.383.382,2.53,2.53,0,0,0,2.446-2.611,2.247,2.247,0,0,0-.019-.243,2.352,2.352,0,0,0-1.25-2.295,2.846,2.846,0,0,0-1.339-.324m-.25,6.164a2.942,2.942,0,0,1-3.169-2.7,2.878,2.878,0,0,1,.006-.54,3.266,3.266,0,0,1,1.854-3.148,4.417,4.417,0,0,1,1.912-.441,2.854,2.854,0,0,1,3.135,2.542,3.031,3.031,0,0,1,.013.4,3.678,3.678,0,0,1-3.464,3.879q-.143.007-.287,0" transform="translate(25.668 42.26)" fill="#fff"/>
    <path id="Path_1179" data-name="Path 1179" d="M106.2,102.537h.1c.162,0,.427,0,.427-.25V97.05c0-.265-.324-.309-.515-.309h-.118l.147-.441h2.207l-.162.441c-.221,0-.53,0-.53.309v5.222c0,.088,0,.162.191.206a1.291,1.291,0,0,0,.353,0h.118l-.147.427H106.02Z" transform="translate(43.654 39.071)" fill="#fff"/>
    <path id="Path_1180" data-name="Path 1180" d="M116.2,102.88h-1.118l.162-.427s.559,0,.559-.28V100.38c0-.338-.265-.691-.662-1.25l-.471-.662c-1.059-1.559-1.206-1.6-1.751-1.6h-1.368v5.325c0,.1,0,.162.191.206a1.183,1.183,0,0,0,.353,0h.118l-.147.441H109.8l.177-.441h.1c.162,0,.427,0,.427-.25V96.908h-1.662c-.368,0-.544.53-.544.53l-.28-.177.353-.971h5.193c.956,0,1.192.4,1.736,1.353l.353.588.544.9.294.471a23,23,0,0,1,1.471-2.265l.5-.78a.839.839,0,0,0,.118-.265h1.25v.1a1.9,1.9,0,0,0-.75.588l-.294.4a11.2,11.2,0,0,0-1.912,3.192v1.692c0,.1,0,.162.177.206a1,1,0,0,0,.338,0h.147l-.177.441Z" transform="translate(44.596 39.066)" fill="#fff"/>
    <path id="Path_1181" data-name="Path 1181" d="M73.443,109.32c.279,0,.588,0,.588-.471v-5.09c0-.221-.338-.25-.53-.25h-.147l.162-.427H76.8a1.2,1.2,0,0,1,.736.147v.868s-.382.221-.412.235c0-.324-.147-.647-1.044-.647h-.986a2.974,2.974,0,0,0,0,.485v1.706H77.43l-.28.647h-2.1v2.516a.221.221,0,0,0,.177.206,1,1,0,0,0,.338,0h.221l-.162.427H73.34Z" transform="translate(28.26 42.262)" fill="#fff"/>
    <path id="Path_1182" data-name="Path 1182" d="M98.116,102.934H94.63l.177-.427s.515,0,.515-.471v-5.09c0-.221-.265-.25-.412-.25h-.118l.162-.427h3.119a1.323,1.323,0,0,1,.75.147c.015,0,0,.382,0,.662v.265l-.4.235c0-.324-.147-.647-1.044-.647H96.4a3.339,3.339,0,0,0,0,.485v1.706h2.368l-.309.706H96.4v1.324a9.947,9.947,0,0,0,0,1.147h1.177a10.337,10.337,0,0,0,1.089,0v-.839l.574.4v.765a1.663,1.663,0,0,0,0,.382h-.162Z" transform="translate(38.289 39.057)" fill="#fff"/>
    <path id="Path_1183" data-name="Path 1183" d="M84.974,109.724c-.912-1.015-1.471-1.6-1.883-2.045l-.6-.647-.544-.588c-.706-.78-1.28-1.471-1.471-1.692v4.928h-1.5l.162-.427c.206,0,.544,0,.544-.338v-5.1c0-.221-.235-.324-.736-.324H78.81l.177-.427h1.295c1.9,2.148,1.912,2.162,1.9,2.177s2.03,2.177,2.574,2.721v-4.884h.721a7.088,7.088,0,0,0,.75,0l-.162.441c-.118,0-.515,0-.515.279v5.914h-.6Z" transform="translate(30.836 42.255)" fill="#fff"/>
    <path id="Path_1184" data-name="Path 1184" d="M92.271,103.585a1.481,1.481,0,0,0-.456,0v2.192a3.066,3.066,0,0,0,1.015-.191,1.191,1.191,0,0,0,.721-1.192c0-.574-.4-.839-1.309-.839m3.619,6.767a5.023,5.023,0,0,1-1.03-1.03l-.544-.618L91.8,105.909v3.825H90.05l.162-.441a.776.776,0,0,0,.5-.132.162.162,0,0,0,0-.118l.088-3.1V103.82a1,1,0,0,0-.544-.309v-.441h2.53c.618,0,1.809.25,1.809,1.206a1.935,1.935,0,0,1-1.471,1.736l-.28.074a19.986,19.986,0,0,1,1.6,1.574c.633.647,1.339,1.368,1.9,1.912a4.888,4.888,0,0,0,.986.75H95.861Z" transform="translate(36.131 42.26)" fill="#fff"/>
    <path id="Path_1185" data-name="Path 1185" d="M87.99,103.724a2.34,2.34,0,0,0-2.177,1.265,3.416,3.416,0,0,0-.265,1.353,2.531,2.531,0,0,0,1.206,2.413,2.61,2.61,0,0,0,1.368.382,2.5,2.5,0,0,0,2.417-2.582,2.245,2.245,0,0,0-.019-.243,2.34,2.34,0,0,0-1.236-2.265,2.8,2.8,0,0,0-1.324-.324m-.235,6.164a3.03,3.03,0,0,1-3.2-2.854,3.21,3.21,0,0,1,0-.412,3.294,3.294,0,0,1,1.868-3.178A4.415,4.415,0,0,1,88.343,103a2.942,2.942,0,0,1,3.182,2.682c.007.087.01.174.01.26a3.707,3.707,0,0,1-3.541,3.866c-.084,0-.169,0-.255,0" transform="translate(33.528 42.224)" fill="#fff"/>
    <path id="Path_1186" data-name="Path 1186" d="M95.978,109.263c.177,0,.353,0,.353-.265v-5.325H94.669c-.368,0-.53.515-.53.53l-.28-.177.368-.956h5.428l-.1,1.074h-.294a.843.843,0,0,0-.147-.4.422.422,0,0,0-.309-.118H97.332v5.325c0,.1,0,.162.206.206a1.289,1.289,0,0,0,.353,0h.118l-.147.427H96.787a8.11,8.11,0,0,0-1,0h0Z" transform="translate(37.926 42.26)" fill="#fff"/>
    <path id="Path_1187" data-name="Path 1187" d="M103.316,109.273h.1c.162,0,.427,0,.427-.25v-2.457h-3.825v2.442c0,.088,0,.162.191.206a1.416,1.416,0,0,0,.353,0h.1l-.147.441H98.27l.177-.441h.1c.162,0,.427,0,.427-.25l.074-3.06-.088-2.074c0-.265-.309-.309-.515-.309h-.118l.147-.441h2.207l-.162.441c-.25,0-.53,0-.53.309V105.9h3.825v-2.06c0-.265-.324-.309-.5-.309H103.2l.147-.441h2.207l-.162.441c-.25,0-.53,0-.53.309v5.208c0,.074.382.25.544.25h.118l-.162.441H103.11Z" transform="translate(40.004 42.265)" fill="#fff"/>
    <path id="Path_1188" data-name="Path 1188" d="M121.362,106.586h1.883l-.368-.853-.309-.75c-.118-.294-.206-.5-.265-.662-.147.4-.941,2.207-.971,2.28h0m-8.5,3.678a7.2,7.2,0,0,0,.706-.633c.353-.368,1.751-2.059,2.339-2.824l.235-.294-.206-.265-.368-.559c-.147-.25-.324-.515-.544-.853-.809-1.177-.941-1.295-1.471-1.295l.147-.427H115.1s1.015,1.559,1.471,2.295l.206.324a.3.3,0,0,1,.132-.235l.883-1.147.736-.956a.766.766,0,0,0,.118-.265h1.221a3.943,3.943,0,0,0-.691.618l-.456.618-1.353,1.809-.118.162v.147l.118.162,1.677,2.413c.1.147.147.206.177.206s0,0,.088-.088l1.162-2.5,1.589-3.589h.721s.338.912,1.1,2.619a35.545,35.545,0,0,0,1.692,3.413.706.706,0,0,0,.588.324v-1.28h.471s.1.53.1.544a1.893,1.893,0,0,0,1.162.4,1.28,1.28,0,0,0,.986-.382,1.046,1.046,0,0,0,.265-.736c0-.691-.515-1.059-1.633-1.162s-1.795-.677-1.795-1.6a2.144,2.144,0,0,1,.412-1.221,2.632,2.632,0,0,1,2.133-.971,2.492,2.492,0,0,1,.868.147,1.476,1.476,0,0,1,.559.338l-.088,1.236h-.456l-.1-.544a2.046,2.046,0,0,0-1.162-.382,1.118,1.118,0,0,0-1.246.974l0,.041c0,.794.515,1.147,1.618,1.25s1.795.677,1.795,1.6a2.144,2.144,0,0,1-.412,1.221,2.647,2.647,0,0,1-2.133.971,2.492,2.492,0,0,1-.868-.147h-.324v.118h-.986a4.517,4.517,0,0,0-.662,0l-1.162-2.471H120.95l-.221.5-.515,1.118a.253.253,0,0,0,0,.25c.1.147.427.177.574.177l-.088.427h-2.383c-.368-.559-.927-1.383-1.339-1.986l-.28-.427-.088-.147-.177.147-.736.941c-.588.75-1.324,1.677-1.368,1.751a.6.6,0,0,1-.191.235H112.83Z" transform="translate(46.862 42.245)" fill="#fff"/>
    <path id="Path_1189" data-name="Path 1189" d="M107.678,109.283c.177,0,.353,0,.353-.265v-5.325h-1.648c-.368,0-.544.515-.544.53l-.28-.177.353-.956h5.428l-.118,1.074h-.294a.8.8,0,0,0-.132-.382.444.444,0,0,0-.324-.118H109v5.325c0,.1,0,.162.206.206a1.289,1.289,0,0,0,.353,0h.118l-.147.441h-1.074a8.1,8.1,0,0,0-1,0h0Z" transform="translate(43.438 42.269)" fill="#fff"/>
    <path id="Path_1190" data-name="Path 1190" d="M113.788,109.706H109.86l.162-.427a1.328,1.328,0,0,0,.265,0,.426.426,0,0,0,.25-.412v-5.06c0-.221-.338-.25-.53-.25h-.147l.162-.427h3.236c.574,0,.736.147.736.147v.868s-.382.221-.4.235c0-.324-.147-.647-1.044-.647h-.986v2.148h2.545l-.294.706h-2.236V107.9a9.335,9.335,0,0,0,0,1.147h1.089a5.9,5.9,0,0,0,.853,0v-.839l.574.4v.765a1.513,1.513,0,0,0,0,.382h-.515Z" transform="translate(45.463 42.288)" fill="#fff"/>
    <path id="Path_1191" data-name="Path 1191" d="M126.355,104.083a.427.427,0,0,0,.4-.427c0-.309-.177-.456-.544-.456h-.618v1.633h.177V104.1h.427l.471.721h.206Zm-.265-.162h-.324v-.588h.427c.118,0,.382,0,.382.294S126.326,103.921,126.09,103.921Z" transform="translate(52.873 42.321)" fill="#fff"/>
    <path id="Path_1192" data-name="Path 1192" d="M126.378,102.81a1.368,1.368,0,1,0,1.368,1.368,1.367,1.367,0,0,0-1.368-1.368Zm0,2.618a1.236,1.236,0,0,1-1.236-1.236v-.015a1.236,1.236,0,1,1,1.25,1.25Z" transform="translate(52.6 42.137)" fill="#fff"/>
    <path id="Path_1193" data-name="Path 1193" d="M114.656,62.595l-3.486,9.621H116.5l1.309-3.692h5.208V94.914l-2.957.015-2.148,5.928,14.667.015,2.192-5.943-4.1-.015V68.523h6.12l-.015,3.692,3.692-.015,3.486-9.621-29.289.015" transform="translate(46.08 23.186)" fill="#fff"/>
    <path id="Path_1194" data-name="Path 1194" d="M121.339,68.508v32.364h-4.516l-22.4-23.625V94.9h4.148l-2.148,5.973H82.856L85.019,94.9h2.324V68.538H82.4l2.148-5.958h8.312s16.064,16.8,21.639,22.684v-16.7h-4.031l2.118-5.973h13.887l-2.148,5.973h-2.942" transform="translate(32.528 23.186)" fill="#fff"/>
    <path id="Path_1195" data-name="Path 1195" d="M70.511,101.56a2.687,2.687,0,0,0-1.471.206A9.249,9.249,0,0,0,67.3,98.574l3.192,2.942a3.37,3.37,0,0,0-.853-3.825C66.8,95.058,61.39,90.1,61.39,90.13a21.149,21.149,0,0,1,1.471,12.4l2.8.53.338.559a14.072,14.072,0,0,1,3.692.9s1.1.765-.074,1.824A6.465,6.465,0,0,0,72.438,105s.927-.794-.162-1.912l-1.633-1.471" transform="translate(22.63 36.164)" fill="#fff"/>
    <path id="Path_1196" data-name="Path 1196" d="M72,99.6,31.969,62.251A4.413,4.413,0,0,1,30.807,58l-3.28,7.208A3.691,3.691,0,0,0,29,69.621L60.891,95.512v1.044L30,72.887a3.62,3.62,0,0,1-1.177-3.016l-2.31,4.6c-1.089,2.589,1.589,4.237,2.707,5s31.849,22.154,31.849,22.154l.265,1.28S31.543,83.1,30.439,82.42a3.2,3.2,0,0,1-1.221-2.692l-2.162,4.678c-.912,1.9,1.692,3.222,2.839,3.913.677.412,17.344,10.3,31.069,18.506H43.135a5.578,5.578,0,0,1-3.5-.78l2.427,2.251a4.607,4.607,0,0,0,3.045,1.721h6.576l1.295.559-5.737.441a4.01,4.01,0,0,1-2.942-.677l2.545,2.486a3.061,3.061,0,0,0,2.5,1.1c1.221-.1,8.415-1.295,8.415-1.295l1.147.515L51.358,114.8a3.944,3.944,0,0,1-2.942-.5l2.368,2.31c.986.941,1.854,1.471,4.972.662,1.236-.353,7.355-2.295,7.355-2.295l3.957,1.721a33.217,33.217,0,0,0,8.826,8.429,2.149,2.149,0,0,0-.147,2.427,4.207,4.207,0,0,1,4.045-2.383c1.206.177.883,1.648.927,1.589.75-.941,1.353-2.074.6-3.045s-3.251-.162-3.251-.162l-2.28-4.163,3.089-1.765c1.692-10.739-6.914-18.035-6.914-18.035" transform="translate(6.08 21.029)" fill="#fff"/>
    <path id="Path_1197" data-name="Path 1197" d="M88.893,64.328l-2.207,5.958h3.722v17.3c0,3.178-.574,4.958-2.133,6.532a7.824,7.824,0,0,1-5.428,2.015,8.826,8.826,0,0,1-6.3-2.368c-1.471-1.471-2.162-3.81-2.162-7.252V64.328H63.59L61.4,70.212H66V86.923c-1.162-1.471-2.221-2.633-2.78-3.3L44.1,62.15a3.136,3.136,0,0,1-1-3.28l-2.162,4.855c-.485,1.339.412,2.207,1.089,2.942S62.178,87.924,62.178,87.924l-.132,1.118L43.569,70.58C42.1,69.109,42.5,67.9,42.554,67.741l-1.986,4.413c-.456,1.383.971,2.295,1.957,3.251s21.625,20.242,23.3,21.772a23.62,23.62,0,0,1,5.355,7.605,18.162,18.162,0,0,0,.294-4.663,17.153,17.153,0,0,0,10.3,3.222c9.562,0,15.74-6.179,15.74-15.74V70.212h2.721l2.133-5.958Z" transform="translate(12.78 21.439)" fill="#fff"/>
    <path id="Path_1198" data-name="Path 1198" d="M41.89,64.9h0" transform="translate(13.444 24.279)" fill="#fff"/>
    <path id="Path_1199" data-name="Path 1199" d="M132.2,68.9a.191.191,0,0,0,.177-.2h0c0-.147-.088-.206-.25-.206h-.279v.75h.074V68.9h.147l.221.338h.088Zm-.118,0h-.147v-.265h.132s.177,0,.177.132-.059.074-.177.074Z" transform="translate(55.822 25.97)" fill="#fff"/>
    <path id="Path_1200" data-name="Path 1200" d="M132.2,68.33a.633.633,0,1,0,.633.633h0A.633.633,0,0,0,132.2,68.33Zm0,1.206a.559.559,0,0,1-.574-.544v-.029a.574.574,0,1,1,1.133-.182.543.543,0,0,1,0,.182.559.559,0,0,1-.544.574Z" transform="translate(55.69 25.88)" fill="#fff"/>
  </g>
</svg>
